<svg width="512" height="512" viewBox="0 0 512 512" fill="none" xmlns="http://www.w3.org/2000/svg">
<g clip-path="url(#clip0_1_2)">
<g clip-path="url(#clip1_1_2)">
<path d="M369.518 292.638C363.148 308.603 391.561 320.214 391.561 320.214C393.97 326.155 363.445 308.14 350.345 320.81C337.244 333.479 427.009 430.486 411.28 440.822C395.551 451.156 377.64 400.17 359.756 407.602C341.873 415.035 325.043 355.288 305.797 359.598C286.55 363.908 302.385 348.061 282.503 349.156C262.62 350.251 249.651 397.027 249.651 397.027C244.001 400.116 263.547 350.235 244.65 344.856C225.753 339.477 200.008 398.256 182.725 389.855C165.442 381.456 226.938 339.981 211.976 328.85C197.014 317.72 144.835 343.275 144.835 343.275C140.128 344.662 196.823 317.854 187.94 302.725C179.058 287.597 91.7301 314.243 86.4773 297.943C81.2294 281.644 179.861 288.595 178.605 271.757C177.347 254.919 110.471 254.176 113.018 237.467C115.566 220.759 177.098 255.566 183.512 239.592C189.927 223.618 155.11 193.206 151.143 188.438C149.926 185.107 188.861 224.092 202.002 211.417C215.143 198.741 194.268 179.927 192.182 178.119C188.847 175.228 214.905 198.966 232.795 191.554C250.685 184.141 213.687 117.275 232.872 112.853C252.057 108.429 249.951 184.553 269.831 183.364C289.711 182.182 291.483 152.07 291.483 152.07C295.711 154.307 288.81 181.797 307.686 187.148C326.562 192.499 367.827 120.017 385.115 128.434C412.357 138.617 325.599 192.59 340.509 203.747C355.418 214.904 377.999 174.348 390.124 187.748C402.25 201.149 355.509 214.389 364.408 229.485C373.307 244.581 415.291 235.736 417.848 237.079C421.6 241.128 373.055 243.99 374.415 260.828C375.775 277.666 471.255 263.197 468.6 279.902C465.95 296.607 375.89 276.67 369.517 292.635L369.518 292.638Z" fill="#199825"/>
<path fill-rule="evenodd" clip-rule="evenodd" d="M243.145 408.492L209.278 464.585C196.806 485.24 227.442 488.049 233.006 459.859L243.145 408.492Z" fill="#199825"/>
<path fill-rule="evenodd" clip-rule="evenodd" d="M395.779 323.137L458.227 375.381C481.224 394.62 508.303 350.43 468.538 350.436C440.659 350.441 419.04 334.73 395.779 323.137L395.779 323.137Z" fill="#199825"/>
<path fill-rule="evenodd" clip-rule="evenodd" d="M428.569 236.545C445.942 234.645 463.333 228.439 480.667 236.085C497.695 243.596 494.537 214.655 472.548 221.952L428.569 236.545Z" fill="#199825"/>
<path fill-rule="evenodd" clip-rule="evenodd" d="M189.711 176.205L157.241 104.42C145.284 77.9861 102.873 102.308 134.941 124.155C176.149 152.229 172.422 159.307 189.711 176.204L189.711 176.205Z" fill="#199825"/>
<path d="M409.406 179.192C412.574 179.205 415.15 177.04 415.162 174.355C415.173 171.671 412.614 169.485 409.447 169.472C406.279 169.459 403.703 171.624 403.692 174.308C403.68 176.992 406.239 179.178 409.406 179.192Z" fill="#199825"/>
<path fill-rule="evenodd" clip-rule="evenodd" d="M14.4954 149.23C8.91039 154.169 2.46114 162.092 5.71532 168.36C12.2237 180.898 36.1017 188.792 50.8883 183.294C58.2816 180.545 61.6962 170.792 59.6684 164.164C56.462 153.683 42.8275 144.912 30.1785 143.398C24.5217 142.721 18.4441 145.737 14.4954 149.229L14.4954 149.23Z" fill="#199825"/>
<path fill-rule="evenodd" clip-rule="evenodd" d="M86.4567 195.658C84.4405 197.441 82.1125 200.3 83.2871 202.563C85.6366 207.089 94.2559 209.939 99.594 207.954C102.263 206.962 103.496 203.441 102.764 201.049C101.606 197.265 96.6842 194.099 92.1185 193.553C90.0764 193.308 87.8823 194.397 86.4567 195.658Z" fill="#199825"/>
<path fill-rule="evenodd" clip-rule="evenodd" d="M289.115 84.4336C286.43 86.8081 283.329 90.6171 284.894 93.631C288.023 99.6593 299.504 103.455 306.613 100.811C310.168 99.4896 311.81 94.8006 310.835 91.6138C309.293 86.5749 302.738 82.3574 296.656 81.6298C293.936 81.3046 291.014 82.7545 289.115 84.4336Z" fill="#199825"/>
<path d="M466.941 168.917C466.937 169.982 466.633 171.042 466.037 172.074Z" fill="#199825"/>
<path fill-rule="evenodd" clip-rule="evenodd" d="M292.327 123.236C291.143 124.283 289.776 125.962 290.465 127.291C291.845 129.949 296.907 131.622 300.042 130.457C301.609 129.874 302.333 127.807 301.903 126.402C301.223 124.18 298.333 122.32 295.652 121.999C294.452 121.856 293.164 122.495 292.327 123.236Z" fill="#199825"/>
<path fill-rule="evenodd" clip-rule="evenodd" d="M278.827 377.908C275.896 380.499 272.512 384.656 274.22 387.945C277.635 394.524 290.164 398.665 297.922 395.781C301.802 394.339 303.593 389.221 302.529 385.744C300.847 380.245 293.693 375.642 287.056 374.848C284.088 374.493 280.899 376.075 278.827 377.908Z" fill="#199825"/>
<path fill-rule="evenodd" clip-rule="evenodd" d="M138.452 347.461L73.3519 372.901C49.3796 382.269 81.549 412.595 92.9368 386.791C100.921 368.701 121.312 359.208 138.452 347.461Z" fill="#199825"/>
</g>
<circle cx="208" cy="244" r="105" fill="#199825"/>
<ellipse cx="285.5" cy="199.5" rx="86.5" ry="88.5" fill="#199825"/>
<circle cx="149" cy="349" r="72" fill="#199825"/>
<circle cx="229.5" cy="363.5" r="75.5" fill="#199825"/>
<ellipse cx="353" cy="269.5" rx="71" ry="66.5" fill="#199825"/>
<ellipse cx="327" cy="343.5" rx="45" ry="73.5" fill="#199825"/>
<path d="M303.518 91.2109H380.127V298.778C380.127 323.514 374.962 344.467 364.631 361.637C354.3 378.662 339.822 391.539 321.197 400.27C302.572 409 280.673 413.365 255.5 413.365C230.618 413.365 208.719 409 189.803 400.27C171.033 391.539 156.336 378.662 145.714 361.637C135.238 344.467 130 323.514 130 298.778V91.2109H206.828V298.778C206.828 311.874 208.719 322.568 212.502 330.862C216.286 339.011 221.815 344.977 229.09 348.76C236.366 352.543 245.169 354.435 255.5 354.435C265.977 354.435 274.78 352.543 281.91 348.76C289.04 344.977 294.423 339.011 298.061 330.862C301.699 322.568 303.518 311.874 303.518 298.778V91.2109Z" fill="#272727"/>
<g clip-path="url(#clip2_1_2)">
<path d="M254.387 381.487C239.354 380.015 236.402 406.704 236.402 406.704C231.963 410.171 239.817 380.153 225.944 372.226C212.071 364.3 151.757 463.274 139.222 452.573C126.689 441.871 165.458 414.437 154.857 401.221C144.255 388.005 190.691 359.35 182.4 344.23C174.108 329.111 191.327 338.561 185.6 322.126C179.872 305.691 137.203 306.162 137.203 306.162C133.227 302.167 180.109 306.465 180.092 289.285C180.075 272.105 124.174 264.76 127.101 248.202C130.027 231.643 179.935 273.223 185.73 257.95C191.524 242.678 157.321 205.055 157.321 205.055C155.012 201.439 191.365 242.549 202.006 231.412C212.648 220.275 169.035 153.393 181.543 145.02C194.053 136.652 211.998 221.192 225.927 216.045C239.855 210.897 224.332 154.541 239.07 152.621C253.808 150.701 239.249 210.846 254.3 212.352C269.351 213.859 286.647 177.224 289.72 172.733C292.241 170.901 268.693 213.079 282.58 221.038C296.468 228.996 307.329 206.89 308.354 204.698C309.991 201.194 296.22 228.851 306.807 242.078C317.393 255.304 364.975 207.979 373.346 223.02C381.719 238.061 316.868 254.788 322.674 271.199C328.474 287.61 354.354 281.783 354.354 281.783C353.484 285.877 328.582 286.76 328.618 303.916C328.654 321.073 399.885 338.124 396.946 354.691C394.918 380.049 328.344 320.286 322.515 335.52C316.686 350.755 356.419 359.869 348.021 373.31C339.623 386.752 317.143 350.707 306.532 361.85C295.921 372.993 313.538 406.111 313.02 408.585C310.504 412.721 296.36 372.638 282.456 377.871C268.553 383.105 303.843 459.793 289.082 461.622C274.323 463.455 269.423 382.96 254.389 381.485L254.387 381.487Z" fill="#199825"/>
<path fill-rule="evenodd" clip-rule="evenodd" d="M125.941 303.483L70.3494 288.663C49.8783 283.206 54.9037 309.623 80.0744 307.447L125.941 303.483Z" fill="#199825"/>
<path fill-rule="evenodd" clip-rule="evenodd" d="M234.951 410.957L205.874 476.108C195.167 500.1 239.058 512.109 229.448 478.708C222.711 455.291 230.77 433.313 234.95 410.957L234.951 410.957Z" fill="#199825"/>
<path fill-rule="evenodd" clip-rule="evenodd" d="M316.061 417.461C321.863 431.593 331.308 444.694 329.032 461.112C326.796 477.24 350.495 467.556 339.017 450.858L316.061 417.461Z" fill="#199825"/>
<path fill-rule="evenodd" clip-rule="evenodd" d="M309.374 202.158L362.208 157.44C381.663 140.974 350.863 111.258 340.141 143.504C326.364 184.94 319.482 183.529 309.375 202.158L309.374 202.158Z" fill="#199825"/>
<path d="M359.91 387.429C360.664 390.092 363.117 391.731 365.388 391.088C367.659 390.445 368.89 387.765 368.136 385.101C367.382 382.437 364.93 380.799 362.658 381.442C360.387 382.084 359.157 384.765 359.91 387.429Z" fill="#199825"/>
<path fill-rule="evenodd" clip-rule="evenodd" d="M289.857 48.4215C284.333 44.9301 276.079 41.4377 271.567 45.6943C262.541 54.2078 261.636 76.1834 269.855 87.2684C273.964 92.8108 283.032 93.3094 288.145 89.9955C296.229 84.7556 300.35 71.1714 298.574 60.1782C297.78 55.262 293.763 50.8896 289.858 48.4212L289.857 48.4215Z" fill="#199825"/>
<path fill-rule="evenodd" clip-rule="evenodd" d="M267.994 120.15C266 118.89 263.021 117.629 261.392 119.166C258.134 122.239 257.807 130.172 260.774 134.173C262.257 136.174 265.53 136.354 267.376 135.158C270.294 133.266 271.782 128.363 271.141 124.395C270.854 122.62 269.404 121.041 267.994 120.15Z" fill="#199825"/>
<path fill-rule="evenodd" clip-rule="evenodd" d="M410.951 263.359C408.296 261.681 404.327 260.001 402.158 262.048C397.818 266.141 397.383 276.708 401.334 282.037C403.31 284.702 407.67 284.942 410.128 283.349C414.015 280.829 415.996 274.298 415.143 269.013C414.761 266.649 412.829 264.547 410.951 263.359Z" fill="#199825"/>
<path d="M382.49 433.262C381.589 433.517 380.62 433.519 379.604 433.269Z" fill="#199825"/>
<path fill-rule="evenodd" clip-rule="evenodd" d="M378.93 275.485C377.759 274.745 376.009 274.005 375.053 274.907C373.139 276.712 372.947 281.37 374.689 283.721C375.561 284.895 377.483 285.001 378.567 284.299C380.281 283.188 381.154 280.308 380.778 277.978C380.609 276.935 379.758 276.008 378.93 275.485Z" fill="#199825"/>
<path fill-rule="evenodd" clip-rule="evenodd" d="M160.41 326.024C157.512 324.192 153.181 322.36 150.813 324.593C146.077 329.06 145.603 340.591 149.915 346.408C152.071 349.316 156.829 349.578 159.511 347.839C163.753 345.089 165.915 337.961 164.983 332.194C164.567 329.614 162.459 327.32 160.41 326.024Z" fill="#199825"/>
<path fill-rule="evenodd" clip-rule="evenodd" d="M152.241 200.711L115.016 152.208C101.308 134.347 83.4442 168.738 108.005 172.034C125.224 174.345 138.173 189.168 152.241 200.711Z" fill="#199825"/>
</g>
</g>
<defs>
<clipPath id="clip0_1_2">
<rect width="512" height="512" fill="white"/>
</clipPath>
<clipPath id="clip1_1_2">
<rect width="616.679" height="739.079" fill="white" transform="translate(-20.9234 -84) rotate(0.238507)"/>
</clipPath>
<clipPath id="clip2_1_2">
<rect width="539" height="650" fill="white" transform="translate(478.439 -38) rotate(74.199)"/>
</clipPath>
</defs>
</svg>
